<mxfile modified="2020-05-14T04:05:13.520Z" host="app.diagrams.net" agent="5.0 (Windows NT 10.0; WOW64) AppleWebKit/537.36 (KHTML, like Gecko) Chrome/81.0.4044.138 Safari/537.36" etag="eF8vUA-DdF4HMJUVMLZT" version="13.1.1" type="github">
  <diagram id="Ht1M8jgEwFfnCIfOTk4-" name="Page-1">
    <mxGraphModel dx="1422" dy="1540" grid="1" gridSize="10" guides="1" tooltips="1" connect="1" arrows="1" fold="1" page="1" pageScale="1" pageWidth="1169" pageHeight="827" math="0" shadow="0">
      <root>
        <mxCell id="0" />
        <mxCell id="1" parent="0" />
        <mxCell id="Gp6BROhoxOLdqxNDhciu-20" value="保存" style="edgeStyle=orthogonalEdgeStyle;rounded=0;orthogonalLoop=1;jettySize=auto;html=1;exitX=0.971;exitY=0.5;exitDx=0;exitDy=0;exitPerimeter=0;" parent="1" source="Gp6BROhoxOLdqxNDhciu-4" target="Gp6BROhoxOLdqxNDhciu-18" edge="1">
          <mxGeometry relative="1" as="geometry">
            <Array as="points">
              <mxPoint x="610" y="-555" />
              <mxPoint x="610" y="-640" />
            </Array>
          </mxGeometry>
        </mxCell>
        <mxCell id="Gp6BROhoxOLdqxNDhciu-21" value="同步" style="edgeStyle=orthogonalEdgeStyle;rounded=0;orthogonalLoop=1;jettySize=auto;html=1;" parent="1" source="Gp6BROhoxOLdqxNDhciu-4" target="Gp6BROhoxOLdqxNDhciu-19" edge="1">
          <mxGeometry relative="1" as="geometry">
            <Array as="points">
              <mxPoint x="442" y="-555" />
              <mxPoint x="610" y="-555" />
              <mxPoint x="610" y="-450" />
            </Array>
          </mxGeometry>
        </mxCell>
        <mxCell id="Gp6BROhoxOLdqxNDhciu-9" value="" style="rounded=0;whiteSpace=wrap;html=1;strokeColor=none;dashed=1;fillColor=#d5e8d4;" parent="1" vertex="1">
          <mxGeometry x="366" y="-420" width="140" height="143" as="geometry" />
        </mxCell>
        <mxCell id="Gp6BROhoxOLdqxNDhciu-16" style="edgeStyle=orthogonalEdgeStyle;rounded=0;orthogonalLoop=1;jettySize=auto;html=1;exitX=0.5;exitY=0.5;exitDx=0;exitDy=0;exitPerimeter=0;entryX=-0.029;entryY=0.433;entryDx=0;entryDy=0;entryPerimeter=0;" parent="1" source="Gp6BROhoxOLdqxNDhciu-3" target="Gp6BROhoxOLdqxNDhciu-9" edge="1">
          <mxGeometry relative="1" as="geometry" />
        </mxCell>
        <mxCell id="Gp6BROhoxOLdqxNDhciu-17" value="访问" style="edgeLabel;html=1;align=center;verticalAlign=middle;resizable=0;points=[];" parent="Gp6BROhoxOLdqxNDhciu-16" vertex="1" connectable="0">
          <mxGeometry x="-0.1373" y="1" relative="1" as="geometry">
            <mxPoint as="offset" />
          </mxGeometry>
        </mxCell>
        <mxCell id="Gp6BROhoxOLdqxNDhciu-3" value="用户" style="shape=umlActor;verticalLabelPosition=bottom;labelBackgroundColor=#ffffff;verticalAlign=top;html=1;outlineConnect=0;" parent="1" vertex="1">
          <mxGeometry x="158" y="-399" width="40" height="82" as="geometry" />
        </mxCell>
        <mxCell id="Gp6BROhoxOLdqxNDhciu-23" value="拉取文案" style="edgeStyle=orthogonalEdgeStyle;rounded=0;orthogonalLoop=1;jettySize=auto;html=1;entryX=0.25;entryY=1;entryDx=0;entryDy=0;" parent="1" target="Gp6BROhoxOLdqxNDhciu-19" edge="1">
          <mxGeometry relative="1" as="geometry">
            <mxPoint x="506" y="-350" as="sourcePoint" />
          </mxGeometry>
        </mxCell>
        <mxCell id="Gp6BROhoxOLdqxNDhciu-4" value="MCMS管理系统" style="points=[];aspect=fixed;html=1;align=center;shadow=0;dashed=0;image;image=img/lib/allied_telesis/computer_and_terminals/Personal_Computer_with_Server.svg;" parent="1" vertex="1">
          <mxGeometry x="390" y="-606.5" width="103" height="103" as="geometry" />
        </mxCell>
        <mxCell id="Gp6BROhoxOLdqxNDhciu-7" value="业务系统" style="aspect=fixed;perimeter=ellipsePerimeter;html=1;align=center;shadow=0;dashed=0;spacingTop=3;image;image=img/lib/active_directory/web_server.svg;" parent="1" vertex="1">
          <mxGeometry x="396" y="-410" width="72" height="83" as="geometry" />
        </mxCell>
        <mxCell id="Gp6BROhoxOLdqxNDhciu-8" value="mcms-config.jar" style="rounded=0;whiteSpace=wrap;html=1;dashed=1;strokeColor=#d79b00;fillColor=#ffe6cc;" parent="1" vertex="1">
          <mxGeometry x="416" y="-298" width="90" height="21" as="geometry" />
        </mxCell>
        <mxCell id="Gp6BROhoxOLdqxNDhciu-14" value="维护文案" style="edgeStyle=orthogonalEdgeStyle;rounded=0;orthogonalLoop=1;jettySize=auto;html=1;exitX=0.5;exitY=0.5;exitDx=0;exitDy=0;exitPerimeter=0;" parent="1" source="Gp6BROhoxOLdqxNDhciu-13" target="Gp6BROhoxOLdqxNDhciu-4" edge="1">
          <mxGeometry relative="1" as="geometry">
            <mxPoint x="390" y="-360" as="targetPoint" />
          </mxGeometry>
        </mxCell>
        <mxCell id="Gp6BROhoxOLdqxNDhciu-13" value="管理员" style="shape=umlActor;verticalLabelPosition=bottom;labelBackgroundColor=#ffffff;verticalAlign=top;html=1;outlineConnect=0;" parent="1" vertex="1">
          <mxGeometry x="159" y="-596" width="40" height="82" as="geometry" />
        </mxCell>
        <mxCell id="Gp6BROhoxOLdqxNDhciu-18" value="数据库" style="aspect=fixed;perimeter=ellipsePerimeter;html=1;align=center;shadow=0;dashed=0;spacingTop=3;image;image=img/lib/active_directory/sql_server.svg;" parent="1" vertex="1">
          <mxGeometry x="710" y="-690" width="77" height="100" as="geometry" />
        </mxCell>
        <mxCell id="Gp6BROhoxOLdqxNDhciu-22" value="推送文案" style="edgeStyle=orthogonalEdgeStyle;rounded=0;orthogonalLoop=1;jettySize=auto;html=1;exitX=0.75;exitY=1;exitDx=0;exitDy=0;entryX=1.021;entryY=0.692;entryDx=0;entryDy=0;entryPerimeter=0;" parent="1" source="Gp6BROhoxOLdqxNDhciu-19" target="Gp6BROhoxOLdqxNDhciu-9" edge="1">
          <mxGeometry relative="1" as="geometry" />
        </mxCell>
        <mxCell id="Gp6BROhoxOLdqxNDhciu-19" value="配置中心" style="shape=image;html=1;verticalAlign=top;verticalLabelPosition=bottom;labelBackgroundColor=#ffffff;imageAspect=0;aspect=fixed;image=https://cdn2.iconfinder.com/data/icons/whcompare-isometric-web-hosting-servers/50/cloud-server-128.png;dashed=1;strokeColor=#000000;" parent="1" vertex="1">
          <mxGeometry x="689" y="-530" width="128" height="128" as="geometry" />
        </mxCell>
      </root>
    </mxGraphModel>
  </diagram>
</mxfile>
